<svg id="logo" xmlns="http://www.w3.org/2000/svg" viewBox="0 0 302 85.57"><defs><style>.cls-1,.cls-2{stroke:#7df9ff;stroke-width:2px;}.cls-2{stroke-miterlimit:10;}</style></defs><title>preloader-name-paz1</title><path class="cls-1" d="M41.38,84.74l-9.75.12a.33.33,0,0,1-.36-.3.06.06,0,0,1,0-.06l-1-82.71c0-.25,0-.39.36-.39l9.75-.12a.36.36,0,0,1,.39.33v.06l.1,8.33A31.76,31.76,0,0,1,61.81,1L64.6,1q12-.15,23.15,10.83A33.32,33.32,0,0,1,96,32.73v.94A32,32,0,0,1,82.64,60a31.53,31.53,0,0,1-18.18,6.3l-1.11,0a32.91,32.91,0,0,1-21.82-8.38l.32,26.46a.37.37,0,0,1-.34.39Zm44-50.83V32.8c-.1-7.72-3.92-13.84-11.48-18.64a20.35,20.35,0,0,0-9.81-2.66l-1.83,0A21.74,21.74,0,0,0,41.31,33l0,1.72Q41.48,47,54.48,54a25.06,25.06,0,0,0,8.85,1.73h.56A22,22,0,0,0,85.38,33.94Z"/><path class="cls-1" d="M200.54,71q19.41-.6,22.64-20L224,37.29V1.49c0-.5.11-.5.38-.5h10.46c.39,0,.39.18.39.5v27c0,5.58.21,10.69.21,15.35-.23,3.13.23,6.3-.21,9.41-4.13,29.2-24.53,30.94-39.23,31.06h-2.17V69.74A19.93,19.93,0,0,0,200.54,71Z"/><path class="cls-1" d="M119.38,19.23h1.08a32.88,32.88,0,0,1,21.75,8.64V19.54a.33.33,0,0,1,.31-.36h9.83c.25,0,.36,0,.36.36V84.06c0,.25,0,.39-.36.39h-9.78c-.25,0-.36-.14-.36-.39V75.73a31.69,31.69,0,0,1-21,8.66h-2.77q-12,0-23-11.11A33.34,33.34,0,0,1,87.49,52.4v-.95a32,32,0,0,1,13.64-26.14A31.61,31.61,0,0,1,119.38,19.23ZM98,51.28V52.4c0,7.72,3.75,13.88,11.25,18.77A20.32,20.32,0,0,0,119,74h1.83A21.75,21.75,0,0,0,142,52.7V51c0-8.17-4.28-14.67-12.89-19.44a24.82,24.82,0,0,0-8.84-1.84h-.55A22,22,0,0,0,98,51.26Z"/><path class="cls-1" d="M196.68,79.76a10.34,10.34,0,0,1-.21,2.24,7.71,7.71,0,0,1-.48,1.51,1.68,1.68,0,0,1-.76.83,2.29,2.29,0,0,1-1,.24H156a3.16,3.16,0,0,1-2.38-1,4.61,4.61,0,0,1-.93-3.24V78a9,9,0,0,1,.14-1.72,9.41,9.41,0,0,1,.41-1.51,10.54,10.54,0,0,1,.76-1.62c.32-.58.71-1.23,1.17-2l27.36-42.59H156a2,2,0,0,1-1.76-1.14,7.67,7.67,0,0,1-.65-3.68,15.33,15.33,0,0,1,.13-2.17,4.9,4.9,0,0,1,.45-1.52,2,2,0,0,1,.76-.83A2.23,2.23,0,0,1,156,19h35.56a4,4,0,0,1,1.34.21,2.32,2.32,0,0,1,1,.69,3.55,3.55,0,0,1,.66,1.24,6.54,6.54,0,0,1,.24,1.93v2.2a11.24,11.24,0,0,1-.14,1.8,10.12,10.12,0,0,1-.41,1.62,12.64,12.64,0,0,1-.76,1.68c-.32.6-.72,1.27-1.17,2L165.11,75H194.2a2.11,2.11,0,0,1,1,.24,2,2,0,0,1,.75.8,5.36,5.36,0,0,1,.52,1.48A10.34,10.34,0,0,1,196.68,79.76Z"/><path class="cls-2" d="M225,79.49A5.2,5.2,0,0,1,230.28,74c3.08,0,5.2,2.29,5.2,5.54s-2,5.55-5.28,5.55C227.11,85,225,82.66,225,79.49Z"/></svg>