<svg id="Layer_1" data-name="Layer 1" xmlns="http://www.w3.org/2000/svg" viewBox="0 0 163.15 80.07"><defs><style>.cls-1{stroke:#7df9ff;stroke-miterlimit:10;stroke-width:2px;}</style></defs><title>preloader-name-paz</title><path class="cls-1" d="M43.35,6H68.49q10.14,0,16.35,5.9t6.21,15.54a25,25,0,0,1-3,12,19,19,0,0,1-9.21,8.48,27.94,27.94,0,0,1-10.52,2.91L59.08,51V79.48H43.35ZM58.86,19.18V38H65a9.22,9.22,0,0,0,6.8-2.85,9.31,9.31,0,0,0,2.83-6.78,8.28,8.28,0,0,0-3.19-6.94C69.33,19.78,66.31,19,62.39,19Z" transform="translate(-42.35 -4.97)"/><path class="cls-1" d="M113.21,80.12V71.89H113a25.14,25.14,0,0,1-6.77,7A15.63,15.63,0,0,1,97.75,81q-8.44,0-14.39-7.28a27.12,27.12,0,0,1-5.93-17.69,26.25,26.25,0,0,1,6.32-17.67Q90.08,31,98.76,31a15.05,15.05,0,0,1,7.45,1.85,29.42,29.42,0,0,1,7,5.88V32.08h14.33v48ZM102.68,45.35a8.92,8.92,0,0,0-7.11,3.39,12.78,12.78,0,0,0-2.86,8.54A11,11,0,0,0,95.43,65,9.29,9.29,0,0,0,102.57,68a9.43,9.43,0,0,0,7.28-3.38,11.91,11.91,0,0,0,3-8.2,11.07,11.07,0,0,0-3-7.76A9.47,9.47,0,0,0,102.68,45.35Z" transform="translate(-42.35 -4.97)"/><path class="cls-1" d="M125.92,32.59H165.3a2,2,0,0,1,1.62,3.2L146.14,64.33a2,2,0,0,0,1.63,3.2h15.44a2,2,0,0,1,2,2v9.19a2,2,0,0,1-2,2H123.83a2,2,0,0,1-1.63-3.2l20.9-28.71a2,2,0,0,0-1.62-3.2H125.92a2,2,0,0,1-2-2v-9A2,2,0,0,1,125.92,32.59Z" transform="translate(-42.35 -4.97)"/><path class="cls-1" d="M180.94,9.51h10.75A2.46,2.46,0,0,1,194.15,12V61.58q0,10.14-5.6,16.3T173.89,84a19.08,19.08,0,0,1-11.73-3.86,23,23,0,0,1-7.3-10,2.5,2.5,0,0,1,.79-2.92l10.06-7.62v.23a17.54,17.54,0,0,1,1.12,2.46,18,18,0,0,0,2.55,4.34,4.32,4.32,0,0,0,3.33,1.93,4.94,4.94,0,0,0,4.2-2.18,9.83,9.83,0,0,0,1.57-5.82V12A2.46,2.46,0,0,1,180.94,9.51Z" transform="translate(-42.35 -4.97)"/><path class="cls-1" d="M186.58,75.11a9,9,0,1,1,2.64,6.29A8.65,8.65,0,0,1,186.58,75.11Z" transform="translate(-42.35 -4.97)"/></svg>