<?xml version="1.0" encoding="utf-8"?>
<!-- Generator: Adobe Illustrator 23.0.1, SVG Export Plug-In . SVG Version: 6.00 Build 0)  -->
<svg version="1.1" id="logo" xmlns="http://www.w3.org/2000/svg" xmlns:xlink="http://www.w3.org/1999/xlink" x="0px" y="0px"
	 viewBox="0 0 302 85.6" style="enable-background:new 0 0 302 85.6;" xml:space="preserve">
<style type="text/css">
	.st0{stroke:#7DF9FF;stroke-width:2;}
	.st1{stroke:#7DF9FF;stroke-width:2;stroke-miterlimit:10;}
</style>
<g transform="translate(1 1.014)">
	<path class="st0" d="M40.4,83.7l-9.7,0.1c-0.2,0-0.3-0.1-0.4-0.3c0,0,0,0,0-0.1l-1-82.7c0-0.2,0-0.4,0.4-0.4l9.7-0.1
		c0.2,0,0.4,0.1,0.4,0.3c0,0,0,0,0,0.1L39.9,9C45.5,3.5,53,0.3,60.8,0l2.8,0c8-0.1,15.8,3.5,23.2,10.8c5.1,5.8,8,13.2,8.2,20.9
		l0,0.9c0.1,10.4-4.9,20.2-13.3,26.3c-5.3,3.9-11.6,6.1-18.2,6.3l-1.1,0c-8.1,0-15.8-3-21.8-8.4l0.3,26.5c0,0.2-0.1,0.4-0.3,0.4
		C40.5,83.7,40.4,83.7,40.4,83.7z M84.4,32.9l0-1.1c-0.1-7.7-3.9-13.8-11.5-18.6c-3-1.7-6.4-2.6-9.8-2.7l-1.8,0
		C49.7,10.9,40.4,20.4,40.3,32l0,1.7c0.1,8.2,4.5,14.6,13.1,19.3c2.8,1.1,5.8,1.7,8.9,1.7l0.6,0C74.8,54.5,84.3,44.8,84.4,32.9
		L84.4,32.9z"/>
	<path class="st0" d="M199.5,69.9c12.9-0.4,20.5-7.1,22.6-20l0.8-13.7V0.5c0-0.5,0.1-0.5,0.4-0.5h10.5c0.4,0,0.4,0.2,0.4,0.5v27
		c0,5.6,0.2,10.7,0.2,15.3c-0.2,3.1,0.2,6.3-0.2,9.4c-4.1,29.2-24.5,30.9-39.2,31.1h-2.2V68.7C195,69.5,197.3,69.9,199.5,69.9z"/>
	<path class="st0" d="M118.4,18.2h1.1c8.1,0.1,15.8,3.2,21.7,8.6v-8.3c0-0.2,0.1-0.3,0.3-0.4c0,0,0,0,0.1,0h9.8c0.3,0,0.4,0,0.4,0.4
		V83c0,0.3,0,0.4-0.4,0.4h-9.8c-0.3,0-0.4-0.1-0.4-0.4v-8.3c-5.7,5.4-13.2,8.5-21,8.7h-2.8c-8,0-15.7-3.7-23-11.1
		c-5-5.8-7.8-13.2-7.9-20.9v-0.9c0-10.4,5.1-20.2,13.6-26.1C105.4,20.4,111.8,18.3,118.4,18.2z M97,50.3v1.1
		c0,7.7,3.8,13.9,11.2,18.8c3,1.7,6.3,2.7,9.8,2.8h1.8c6.8-0.1,13.2-3.5,17.1-9.1c2.6-3.5,4-7.8,4.1-12.2V50
		c0-8.2-4.3-14.7-12.9-19.4c-2.8-1.1-5.8-1.8-8.8-1.8h-0.6C106.9,28.8,97.2,38.4,97,50.3L97,50.3z"/>
	<g>
		<path class="st0" d="M195.7,78.7c0,0.9-0.1,1.6-0.2,2.2c-0.1,0.6-0.3,1.1-0.5,1.5c-0.2,0.4-0.4,0.7-0.8,0.8
			c-0.3,0.2-0.7,0.2-1,0.2H155c-1,0-1.8-0.3-2.4-1c-0.6-0.6-0.9-1.7-0.9-3.2V77c0-0.6,0-1.2,0.1-1.7c0.1-0.5,0.2-1,0.4-1.5
			c0.2-0.5,0.4-1,0.8-1.6c0.3-0.6,0.7-1.2,1.2-2l27.4-42.6H155c-0.7,0-1.3-0.4-1.8-1.1c-0.4-0.8-0.7-2-0.7-3.7c0-0.8,0-1.6,0.1-2.2
			c0.1-0.6,0.2-1.1,0.4-1.5c0.2-0.4,0.5-0.7,0.8-0.8c0.3-0.2,0.7-0.2,1.1-0.2h35.6c0.5,0,1,0.1,1.3,0.2c0.4,0.1,0.7,0.4,1,0.7
			c0.3,0.3,0.5,0.7,0.7,1.2c0.2,0.5,0.2,1.1,0.2,1.9v2.2c0,0.6,0,1.2-0.1,1.8c-0.1,0.6-0.2,1.1-0.4,1.6c-0.2,0.5-0.4,1.1-0.8,1.7
			c-0.3,0.6-0.7,1.3-1.2,2L164.1,74h29.1c0.4,0,0.7,0.1,1,0.2c0.3,0.2,0.6,0.4,0.8,0.8c0.2,0.4,0.4,0.9,0.5,1.5
			C195.6,77.1,195.7,77.9,195.7,78.7z"/>
	</g>
	<g>
		<path class="st1" d="M224,78.5c0-3.3,2.2-5.5,5.3-5.5c3.1,0,5.2,2.3,5.2,5.5c0,3.2-2,5.5-5.3,5.5C226.1,84,224,81.6,224,78.5z"/>
	</g>
</g>
</svg>
