<svg width="64" height="189" viewBox="0 0 64 189" fill="none" xmlns="http://www.w3.org/2000/svg">
<g clip-path="url(#clip0)">
<path d="M21.719 36.4334L14.5101 36.2571L13.8059 65.0512L21.0148 65.2275L21.719 36.4334Z" fill="#7DF9FF"/>
<path d="M3.43269 46.7905L3.25665 53.989L32.0922 54.6942L32.2683 47.4956L3.43269 46.7905Z" fill="#7DF9FF"/>
<path d="M50.5755 73.1533L43.3666 72.9771L42.6624 101.771L49.8713 101.948L50.5755 73.1533Z" fill="#7DF9FF"/>
<path d="M32.2892 83.5104L32.1132 90.709L60.9487 91.4141L61.1248 84.2156L32.2892 83.5104Z" fill="#7DF9FF"/>
<path d="M14.552 108.287L10.9475 108.198L10.5954 122.596L14.1999 122.684L14.552 108.287Z" fill="#7DF9FF"/>
<path d="M5.40882 113.465L5.3208 117.064L19.7386 117.417L19.8266 113.818L5.40882 113.465Z" fill="#7DF9FF"/>
<path d="M53.4967 138.05L49.8923 137.962L49.5402 152.359L53.1446 152.447L53.4967 138.05Z" fill="#7DF9FF"/>
<path d="M44.3536 143.229L44.2656 146.828L58.6834 147.181L58.7714 143.581L44.3536 143.229Z" fill="#7DF9FF"/>
<path d="M27.3854 173.426L23.7809 173.338L23.4289 187.735L27.0333 187.823L27.3854 173.426Z" fill="#7DF9FF"/>
<path d="M18.2423 178.605L18.1542 182.204L32.572 182.556L32.66 178.957L18.2423 178.605Z" fill="#7DF9FF"/>
<path d="M61.896 15.8074L62.2481 1.41028L4.5769 -3.60491e-05L4.22483 14.397L61.896 15.8074Z" fill="#7DF9FF"/>
</g>
<defs>
<clipPath id="clip0">
<rect width="58.5898" height="187.218" fill="white" transform="translate(4.5769) rotate(1.40086)"/>
</clipPath>
</defs>
</svg>
