<svg width="387" height="389" viewBox="0 0 387 389" fill="none" xmlns="http://www.w3.org/2000/svg">
<path d="M330.326 56.9672C293.778 20.2318 245.186 0 193.5 0C141.814 0 93.2224 20.2318 56.6743 56.9672C20.1278 93.7042 0 142.547 0 194.5C0 246.453 20.1278 295.296 56.6743 332.033C93.2224 368.768 141.814 389 193.5 389C245.186 389 293.778 368.768 330.326 332.033C366.872 295.296 387 246.453 387 194.5C387 142.547 366.872 93.7042 330.326 56.9672V56.9672ZM322.308 323.974C296.54 349.875 264.412 367.059 229.465 374.055V248.921H255.419C260.811 248.921 265.49 245.249 266.797 239.992L275.886 203.449C276.768 199.903 275.99 196.216 273.752 193.335C271.514 190.454 268.145 188.802 264.508 188.802H223.796C220.666 188.802 218.127 191.353 218.127 194.5C218.127 197.647 220.666 200.198 223.796 200.198H264.508C264.565 200.198 264.698 200.198 264.816 200.349C264.933 200.5 264.901 200.631 264.887 200.686L255.799 237.228C255.755 237.403 255.599 237.526 255.42 237.526H223.796C220.666 237.526 218.127 240.077 218.127 243.224V375.943C210.029 377.034 201.808 377.604 193.5 377.604C144.842 377.604 99.0977 358.558 64.6917 323.974C30.2858 289.39 11.3379 243.409 11.3379 194.5C11.3379 145.591 30.2858 99.6098 64.6917 65.0261C99.0977 30.4423 144.842 11.3965 193.5 11.3965C242.158 11.3965 287.902 30.4423 322.308 65.0261C356.714 99.6098 375.662 145.591 375.662 194.5C375.662 243.409 356.714 289.39 322.308 323.974V323.974Z" fill="#7DF9FF"/>
<path d="M266.209 73.0843H229.854C189.978 73.0843 157.536 105.694 157.536 145.777V188.802H120.791C114.324 188.802 109.063 194.09 109.063 200.59V237.133C109.063 243.633 114.324 248.921 120.791 248.921H157.536V352.851C157.536 355.998 160.074 358.549 163.205 358.549C166.336 358.549 168.874 355.998 168.874 352.851V243.223C168.874 240.076 166.336 237.525 163.205 237.525H120.791C120.576 237.525 120.401 237.349 120.401 237.133V200.59C120.401 200.374 120.576 200.198 120.791 200.198H163.205C166.336 200.198 168.874 197.647 168.874 194.5V145.777C168.874 111.978 196.23 84.4808 229.854 84.4808H266.209C266.424 84.4808 266.599 84.6563 266.599 84.8728V121.415C266.599 121.632 266.424 121.807 266.209 121.807H241.973C228.824 121.807 218.127 132.56 218.127 145.776V170.138C218.127 173.284 220.665 175.836 223.796 175.836C226.927 175.836 229.465 173.284 229.465 170.138V145.776C229.465 138.844 235.076 133.204 241.973 133.204H266.209C272.676 133.204 277.937 127.916 277.937 121.415V84.8728C277.937 78.373 272.676 73.0843 266.209 73.0843V73.0843Z" fill="#7DF9FF"/>
</svg>
