<svg width="424" height="424" viewBox="0 0 424 424" fill="none" xmlns="http://www.w3.org/2000/svg">
<path d="M351.406 0H72.5943C32.566 0 0 32.566 0 72.5943V351.406C0 391.434 32.566 424 72.5943 424H351.406C391.434 424 424 391.434 424 351.406V72.5943C424 32.566 391.434 0 351.406 0ZM411.578 351.406C411.578 384.585 384.585 411.578 351.406 411.578H72.5943C39.4154 411.578 12.4219 384.585 12.4219 351.406V72.5943C12.4219 39.4154 39.4154 12.4219 72.5943 12.4219H351.406C384.585 12.4219 411.578 39.4154 411.578 72.5943V351.406Z" fill="#7DF9FF"/>
<path d="M212 92.9372C146.349 92.9372 92.9376 146.349 92.9376 212C92.9376 277.651 146.349 331.063 212 331.063C277.652 331.063 331.063 277.651 331.063 212C331.063 146.349 277.652 92.9372 212 92.9372ZM212 318.641C153.199 318.641 105.359 270.802 105.359 212C105.359 153.198 153.199 105.359 212 105.359C270.802 105.359 318.641 153.198 318.641 212C318.641 270.802 270.802 318.641 212 318.641Z" fill="#7DF9FF"/>
<path d="M338.129 53.1068C320.063 53.1068 305.365 67.8051 305.365 85.8707C305.365 103.937 320.063 118.635 338.129 118.635C356.196 118.635 370.893 103.937 370.893 85.8707C370.893 67.8043 356.196 53.1068 338.129 53.1068V53.1068ZM338.129 106.214C326.912 106.214 317.787 97.0876 317.787 85.8707C317.787 74.6537 326.912 65.5286 338.129 65.5286C349.346 65.5286 358.471 74.6546 358.471 85.8707C358.471 97.0868 349.346 106.214 338.129 106.214Z" fill="#7DF9FF"/>
<path d="M160.063 160.063C185.487 134.64 225.201 131.328 254.493 152.187C257.286 154.176 261.165 153.525 263.155 150.731C265.145 147.936 264.493 144.058 261.698 142.068C245.35 130.427 225.283 124.876 205.2 126.437C184.869 128.017 165.72 136.84 151.28 151.28C136.84 165.72 128.017 184.87 126.436 205.2C124.875 225.285 130.427 245.35 142.067 261.698C143.279 263.4 145.19 264.307 147.132 264.307C148.379 264.307 149.637 263.933 150.73 263.155C153.524 261.165 154.176 257.287 152.186 254.493C131.328 225.2 134.64 185.487 160.063 160.063V160.063Z" fill="#7DF9FF"/>
<path d="M273.269 160.845C270.475 162.835 269.822 166.713 271.812 169.507C292.672 198.8 289.36 238.513 263.936 263.937C238.513 289.359 198.8 292.673 169.507 271.813C166.712 269.824 162.834 270.475 160.844 273.27C158.854 276.064 159.507 279.942 162.301 281.932C176.841 292.286 194.32 297.822 212.139 297.822C214.355 297.822 216.578 297.736 218.799 297.563C239.13 295.983 258.28 287.161 272.719 272.72C287.159 258.28 295.982 239.13 297.563 218.799C299.124 198.714 293.573 178.65 281.931 162.301C279.941 159.507 276.064 158.855 273.269 160.845V160.845Z" fill="#7DF9FF"/>
</svg>
