<svg width="339" height="339" viewBox="0 0 339 339" fill="none" xmlns="http://www.w3.org/2000/svg">
<g clip-path="url(#clip0)">
<path d="M326.84 105.171C318.353 84.1478 305.884 65.3221 289.779 49.2165C273.673 33.1114 254.848 20.642 233.825 12.1558C212.001 3.34588 188.876 -0.711498 165.095 0.0995794C123.77 1.50721 84.4187 18.3233 54.2897 47.452C24.1461 76.5938 6.03884 115.354 3.30303 156.593C1.05188 190.523 8.83359 223.716 25.8172 252.75L1.06843 317.478C-1.19398 323.395 0.183195 329.853 4.66233 334.333C7.71596 337.387 11.6892 338.999 15.7837 338.998C17.6952 338.998 19.6338 338.647 21.5169 337.927L86.2455 313.178C115.279 330.163 148.475 337.944 182.402 335.692C223.641 332.957 262.402 314.849 291.544 284.706C320.671 254.577 337.488 215.226 338.896 173.901C339.706 150.119 335.65 126.995 326.84 105.171V105.171ZM328.97 173.562C327.647 212.425 311.819 249.445 284.403 277.803C256.978 306.171 220.52 323.21 181.745 325.783C149.035 327.952 117.064 320.224 89.2865 303.431C87.9769 302.64 86.3753 302.496 84.9438 303.043L17.9706 328.65C15.7301 329.506 13.3809 329.005 11.6853 327.31C9.98962 325.615 9.48907 323.265 10.3452 321.025L35.9527 254.051C36.4996 252.621 36.3559 251.019 35.5641 249.708C18.7711 221.931 11.0424 189.959 13.2127 157.25C15.785 118.475 32.8249 82.0171 61.1928 54.5914C89.5501 27.1757 126.57 11.3481 165.434 10.0245C187.82 9.26575 209.578 13.0775 230.108 21.3644C249.887 29.3487 267.6 41.0818 282.757 56.2381C297.913 71.395 309.647 89.1089 317.63 108.887C325.917 129.417 329.732 151.177 328.97 173.562V173.562Z" fill="#7DF9FF"/>
<path d="M170.963 27.1797C136.109 27.1797 102.63 40.0683 76.6952 63.471C74.6592 65.3084 74.4977 68.4487 76.335 70.4847C78.1724 72.5207 81.3127 72.6822 83.3487 70.8449C107.456 49.0914 138.571 37.1113 170.963 37.1113C243.156 37.1113 301.889 95.8446 301.889 168.038C301.889 200.429 289.909 231.545 268.156 255.652C266.319 257.688 266.48 260.828 268.516 262.666C269.466 263.523 270.655 263.945 271.841 263.945C273.198 263.945 274.549 263.393 275.53 262.306C298.932 236.37 311.821 202.892 311.821 168.038C311.82 90.3683 248.632 27.1797 170.963 27.1797V27.1797Z" fill="#7DF9FF"/>
<path d="M252.907 270.04C229.401 288.962 201.065 298.965 170.962 298.965C147.063 298.965 123.682 292.468 103.349 280.177C98.3351 277.143 92.5847 275.54 86.7192 275.54C82.779 275.54 78.9163 276.253 75.2396 277.659L52.7387 286.262L61.3427 263.761C64.9055 254.438 63.9878 244.194 58.8254 235.654C46.5334 215.319 40.0362 191.938 40.0362 168.039C40.0362 137.936 50.0386 109.6 68.9615 86.0937C70.681 83.9571 70.3433 80.8313 68.2074 79.1118C66.0701 77.3917 62.945 77.7307 61.2255 79.866C41.1571 104.795 30.1053 136.108 30.1053 168.039C30.1053 193.749 37.0978 218.907 50.3266 240.792C53.8947 246.693 54.5283 253.772 52.0666 260.214L39.4939 293.096C38.7941 294.926 39.2357 296.996 40.6208 298.381C42.0059 299.766 44.0757 300.208 45.9057 299.508L78.7878 286.935C81.3283 285.964 83.9973 285.471 86.7205 285.471C90.7732 285.471 94.7458 286.579 98.2106 288.675C120.096 301.904 145.253 308.896 170.963 308.896C202.894 308.896 234.207 297.845 259.136 277.776C261.273 276.056 261.61 272.93 259.891 270.794C258.171 268.658 255.044 268.319 252.907 270.04V270.04Z" fill="#7DF9FF"/>
<path d="M135.87 140.968C141.729 135.109 143.638 126.312 140.735 118.558C137.816 110.765 135.603 102.636 134.157 94.3968C133.154 88.6882 129.067 84.0475 123.491 82.2869C117.786 80.4854 111.625 81.9824 107.414 86.194L95.0575 98.5496C88.4457 105.162 85.0266 114.118 85.6768 123.12C88.1146 156.836 102.622 188.569 126.527 212.473C150.431 236.378 182.164 250.885 215.881 253.323C216.607 253.375 217.332 253.402 218.056 253.402C226.312 253.402 234.371 250.022 240.451 243.942L252.806 231.586C257.017 227.375 258.515 221.214 256.714 215.509C254.953 209.932 250.312 205.845 244.604 204.843C236.364 203.396 228.235 201.184 220.442 198.265C212.688 195.361 203.891 197.271 198.033 203.13L196.107 205.056C192.82 208.342 187.905 209.353 183.875 207.57C172.245 202.422 161.778 195.244 152.768 186.233C143.757 177.221 136.578 166.756 131.431 155.126C129.648 151.096 130.657 146.181 133.944 142.894L135.87 140.968ZM128.847 133.946L126.921 135.871C120.754 142.037 118.917 151.391 122.349 159.145C127.993 171.899 135.865 183.376 145.745 193.256C155.625 203.136 167.101 211.007 179.856 216.652C187.61 220.083 196.963 218.246 203.129 212.079L205.056 210.153C208.169 207.04 212.842 206.024 216.959 207.566C225.323 210.698 234.046 213.073 242.886 214.626C245.88 215.151 246.93 217.51 247.243 218.5C247.935 220.692 247.39 222.959 245.784 224.565L233.429 236.92C228.856 241.493 222.721 243.864 216.597 243.418C185.261 241.152 155.767 227.669 133.55 205.451C111.332 183.233 97.8489 153.74 95.5825 122.404C95.1402 116.279 97.5086 110.144 102.08 105.572L114.437 93.217C115.584 92.0702 117.069 91.4644 118.623 91.4644C119.244 91.4644 119.876 91.561 120.501 91.7583C121.491 92.0709 123.85 93.121 124.375 96.115C125.928 104.955 128.303 113.678 131.435 122.042C132.976 126.159 131.961 130.832 128.847 133.946V133.946Z" fill="#7DF9FF"/>
</g>
<defs>
<clipPath id="clip0">
<rect width="339" height="339" fill="white"/>
</clipPath>
</defs>
</svg>
