<svg id="Capa_1" enable-background="new 0 0 512.004 512.004" height="512" viewBox="0 0 512.004 512.004" width="512" xmlns="http://www.w3.org/2000/svg"><g><path d="m493.642 158.846c-12.817-31.752-31.65-60.185-55.974-84.51-24.325-24.324-52.758-43.157-84.51-55.974-32.961-13.306-67.888-19.434-103.804-18.209-62.415 2.126-121.849 27.524-167.354 71.518-45.527 44.014-72.875 102.555-77.007 164.84-3.4 51.245 8.353 101.378 34.004 145.229l-37.379 97.761c-3.417 8.937-1.337 18.691 5.428 25.457 4.612 4.612 10.613 7.047 16.797 7.046 2.887 0 5.815-.531 8.659-1.618l97.762-37.379c43.851 25.652 93.987 37.405 145.229 34.004 62.284-4.132 120.826-31.48 164.84-77.006 43.993-45.505 69.392-104.939 71.518-167.354 1.223-35.919-4.903-70.844-18.209-103.805zm3.218 103.293c-1.999 58.697-25.904 114.61-67.311 157.439-41.422 42.845-96.486 68.581-155.049 72.466-49.402 3.276-97.689-8.396-139.643-33.758-1.978-1.195-4.397-1.413-6.559-.587l-101.152 38.676c-3.384 1.293-6.932.536-9.493-2.024-2.561-2.561-3.317-6.11-2.024-9.493l38.676-101.153c.826-2.16.609-4.58-.587-6.559-25.363-41.953-37.036-90.241-33.758-139.643 3.885-58.563 29.621-113.627 72.466-155.049 42.829-41.407 98.742-65.312 157.439-67.311 33.81-1.146 66.673 4.611 97.679 17.127 29.873 12.059 56.626 29.78 79.518 52.671 22.891 22.892 40.613 49.646 52.671 79.518 12.516 31.007 18.278 63.871 17.127 97.68z"/><path d="m258.211 41.051c-52.641 0-103.205 19.466-142.376 54.812-3.075 2.775-3.319 7.518-.544 10.593s7.518 3.319 10.593.544c36.41-32.855 83.405-50.949 132.327-50.949 109.036 0 197.743 88.707 197.743 197.743 0 48.922-18.094 95.917-50.949 132.327-2.775 3.075-2.531 7.818.544 10.593 1.435 1.294 3.231 1.932 5.022 1.932 2.049 0 4.09-.834 5.571-2.476 35.346-39.171 54.812-89.735 54.812-142.376-.001-117.307-95.437-212.743-212.743-212.743z"/><path d="m381.975 407.85c-35.502 28.58-78.299 43.687-123.765 43.687-36.095 0-71.408-9.813-102.118-28.376-7.573-4.582-16.258-7.004-25.117-7.004-5.951 0-11.785 1.077-17.338 3.201l-33.984 12.994 12.995-33.985c5.381-14.08 3.995-29.553-3.802-42.451-18.565-30.713-28.378-66.026-28.378-102.121 0-45.465 15.107-88.262 43.687-123.765 2.597-3.227 2.087-7.948-1.139-10.545-3.228-2.598-7.948-2.086-10.545 1.139-30.31 37.651-47.002 84.945-47.002 133.171 0 38.831 10.561 76.827 30.541 109.881 5.389 8.913 6.346 19.605 2.628 29.334l-18.989 49.663c-1.057 2.764-.39 5.89 1.702 7.982s5.218 2.759 7.982 1.702l49.663-18.989c3.837-1.467 7.868-2.211 11.981-2.211 6.121 0 12.121 1.673 17.354 4.839 33.054 19.98 71.05 30.541 109.881 30.541 48.226 0 95.52-16.692 133.171-47.002 3.227-2.598 3.736-7.319 1.139-10.545s-7.32-3.738-10.547-1.14z"/><path d="m205.209 212.909c8.849-8.849 11.733-22.135 7.348-33.847-4.408-11.769-7.75-24.047-9.935-36.491-1.514-8.622-7.687-15.631-16.109-18.29-8.617-2.721-17.922-.46-24.282 5.901l-18.662 18.661c-9.986 9.987-15.15 23.513-14.168 37.109 3.682 50.923 25.593 98.851 61.697 134.954 36.104 36.104 84.031 58.015 134.955 61.697 1.096.079 2.192.119 3.285.119 12.469 0 24.642-5.105 33.824-14.287l18.661-18.662c6.36-6.36 8.622-15.665 5.901-24.282-2.659-8.423-9.668-14.596-18.29-16.109-12.444-2.185-24.722-5.527-36.492-9.935-11.712-4.386-24.998-1.501-33.846 7.348l-2.909 2.909c-4.963 4.963-12.387 6.489-18.474 3.796-17.565-7.774-33.373-18.616-46.982-32.226s-24.452-29.417-32.226-46.982c-2.693-6.086-1.168-13.51 3.796-18.474zm-10.606-10.606-2.909 2.908c-9.314 9.313-12.089 23.44-6.906 35.151 8.525 19.263 20.414 36.597 35.336 51.519s32.255 26.811 51.519 35.336c11.712 5.183 25.838 2.408 35.151-6.906l2.909-2.909c4.703-4.702 11.76-6.236 17.979-3.907 12.632 4.73 25.806 8.317 39.158 10.662 4.522.793 6.108 4.356 6.58 5.851 1.045 3.311.222 6.735-2.203 9.16l-18.661 18.661c-6.906 6.906-16.172 10.487-25.421 9.814-47.329-3.422-91.874-23.787-125.43-57.343s-53.92-78.101-57.343-125.429c-.668-9.25 2.909-18.516 9.814-25.421l18.662-18.661c1.733-1.732 3.976-2.647 6.323-2.647.938 0 1.892.146 2.837.444 1.495.472 5.058 2.058 5.851 6.58 2.345 13.352 5.932 26.526 10.662 39.158 2.328 6.219.794 13.276-3.908 17.979z"/></g></svg>