<svg width="54" height="54" viewBox="0 0 54 54" fill="none" xmlns="http://www.w3.org/2000/svg">
<path d="M49.2539 0H4.74609C2.1291 0 0 2.1291 0 4.74609V49.2539C0 51.8709 2.1291 54 4.74609 54H49.2539C51.8709 54 54 51.8709 54 49.2539V4.74609C54 2.1291 51.8709 0 49.2539 0ZM3.16406 4.74609C3.16406 3.87376 3.87376 3.16406 4.74609 3.16406H27.6855L23.7305 12.6562H3.16406V4.74609ZM50.8359 49.2539C50.8359 50.1262 50.1262 50.8359 49.2539 50.8359H4.74609C3.87376 50.8359 3.16406 50.1262 3.16406 49.2539V15.8203H24.7852C25.4239 15.8203 25.9998 15.4363 26.2455 14.8468L31.1133 3.16406H49.2539C50.1262 3.16406 50.8359 3.87376 50.8359 4.74609V49.2539Z" fill="#7DF9FF"/>
<path d="M7.91016 9.49219C8.78389 9.49219 9.49219 8.78389 9.49219 7.91016C9.49219 7.03642 8.78389 6.32812 7.91016 6.32812C7.03642 6.32812 6.32812 7.03642 6.32812 7.91016C6.32812 8.78389 7.03642 9.49219 7.91016 9.49219Z" fill="#7DF9FF"/>
<path d="M14.2383 9.49219C15.112 9.49219 15.8203 8.78389 15.8203 7.91016C15.8203 7.03642 15.112 6.32812 14.2383 6.32812C13.3645 6.32812 12.6562 7.03642 12.6562 7.91016C12.6562 8.78389 13.3645 9.49219 14.2383 9.49219Z" fill="#7DF9FF"/>
<path d="M20.5664 9.49219C21.4401 9.49219 22.1484 8.78389 22.1484 7.91016C22.1484 7.03642 21.4401 6.32812 20.5664 6.32812C19.6927 6.32812 18.9844 7.03642 18.9844 7.91016C18.9844 8.78389 19.6927 9.49219 20.5664 9.49219Z" fill="#7DF9FF"/>
<path d="M40.9128 28.9491L37.7488 23.4688C37.3119 22.7122 36.3444 22.4529 35.5877 22.8897L34.2848 23.6419C33.4949 23.0429 32.6462 22.5493 31.7461 22.1653V20.6719C31.7461 19.7982 31.0378 19.0898 30.1641 19.0898H23.836C22.9623 19.0898 22.2539 19.7982 22.2539 20.6719V22.1653C21.3539 22.5493 20.5051 23.0429 19.7152 23.6419L18.4123 22.8897C17.6556 22.4528 16.688 22.7122 16.2513 23.4688L13.0872 28.9491C12.6504 29.7057 12.9096 30.6733 13.6662 31.1101L14.9635 31.8592C14.9021 32.3519 14.8711 32.843 14.8711 33.3281C14.8711 33.8133 14.9021 34.3043 14.9636 34.7971L13.6663 35.5461C12.9097 35.9831 12.6505 36.9506 13.0873 37.7072L16.2514 43.1874C16.6883 43.9442 17.6557 44.2037 18.4124 43.7665L19.7153 43.0143C20.5051 43.6133 21.354 44.1068 22.254 44.4909V45.9844C22.254 46.8581 22.9624 47.5664 23.8361 47.5664H30.1642C31.0379 47.5664 31.7462 46.8581 31.7462 45.9844V44.4909C32.6463 44.1068 33.4951 43.6133 34.285 43.0143L35.5878 43.7665C36.3444 44.2034 37.312 43.944 37.7489 43.1874L40.9129 37.7072C41.3498 36.9506 41.0905 35.983 40.3339 35.5461L39.0366 34.7971C39.0979 34.3043 39.1289 33.8133 39.1289 33.3281C39.1289 32.843 39.0979 32.3519 39.0364 31.8592L40.3337 31.1101C41.0904 30.6733 41.3497 29.7057 40.9128 28.9491ZM35.7463 31.3823C35.8913 32.0373 35.9649 32.6919 35.9649 33.3281C35.9649 33.9643 35.8913 34.619 35.7463 35.2739C35.597 35.948 35.9021 36.6409 36.4999 36.986L37.3816 37.4951L35.7996 40.2352L34.9113 39.7224C34.313 39.377 33.5599 39.4597 33.0508 39.9268C32.0624 40.8336 30.9317 41.4912 29.69 41.8812C29.0307 42.0884 28.5822 42.6994 28.5822 43.3906V44.4023H25.4181V43.3906C25.4181 42.6994 24.9695 42.0884 24.3102 41.8812C23.0686 41.4912 21.9377 40.8335 20.9495 39.9268C20.4404 39.4598 19.6872 39.377 19.0889 39.7224L18.2007 40.2352L16.6186 37.4951L17.5003 36.986C18.0981 36.6409 18.4033 35.9479 18.2539 35.2739C18.1087 34.619 18.0352 33.9643 18.0352 33.3281C18.0352 32.6919 18.1087 32.0373 18.2537 31.3823C18.403 30.7083 18.0979 30.0154 17.5001 29.6703L16.6184 29.1612L18.2004 26.4211L19.0887 26.9338C19.6871 27.2792 20.4402 27.1964 20.9492 26.7294C21.9376 25.8225 23.0682 25.1651 24.3099 24.775C24.9692 24.5679 25.4179 23.9568 25.4179 23.2657V22.2539H28.5819V23.2657C28.5819 23.9568 29.0305 24.5679 29.6899 24.775C30.9316 25.1651 32.0623 25.8227 33.0507 26.7294C33.5596 27.1965 34.3128 27.2793 34.9111 26.9338L35.7994 26.4211L37.3814 29.1612L36.4997 29.6703C35.902 30.0154 35.597 30.7083 35.7463 31.3823Z" fill="#7DF9FF"/>
<path d="M27 27.5273C23.8014 27.5273 21.1992 30.1296 21.1992 33.3281C21.1992 36.5267 23.8014 39.1289 27 39.1289C30.1986 39.1289 32.8008 36.5267 32.8008 33.3281C32.8008 30.1296 30.1986 27.5273 27 27.5273ZM27 35.9648C25.5461 35.9648 24.3633 34.782 24.3633 33.3281C24.3633 31.8742 25.5461 30.6914 27 30.6914C28.4539 30.6914 29.6367 31.8742 29.6367 33.3281C29.6367 34.782 28.4539 35.9648 27 35.9648Z" fill="#7DF9FF"/>
<path d="M13.7109 20.5664C13.7109 19.6927 13.0026 18.9844 12.1289 18.9844H7.91016C7.03645 18.9844 6.32812 19.6927 6.32812 20.5664C6.32812 21.4401 7.03645 22.1484 7.91016 22.1484H12.1289C13.0026 22.1484 13.7109 21.4401 13.7109 20.5664Z" fill="#7DF9FF"/>
</svg>
