<svg width="54" height="54" viewBox="0 0 54 54" fill="none" xmlns="http://www.w3.org/2000/svg">
<g clip-path="url(#clip0)">
<path fill-rule="evenodd" clip-rule="evenodd" d="M44.9202 49.5755L49.6494 44.8476L51.0683 50.9944L44.9202 49.5755ZM28.8278 34.1248L27.038 32.335L21.6671 26.9641L19.8772 25.1742L8.79747 14.0945L14.1671 8.72357L25.2468 19.8033L27.038 21.5932L32.4076 26.9641L34.1975 28.7539L48.1797 42.7362L42.8101 48.1071L28.8278 34.1248ZM11.0848 48.2868L6.84304 50.1046L3.8962 47.1577L5.71519 42.9134L19.8759 28.7539L25.2468 34.1248L11.0848 48.2868ZM3.41899 8.71598C2.93291 8.22864 2.93418 7.42611 3.42658 6.93243L7.00633 3.35269C7.5038 2.85649 8.29873 2.85522 8.78987 3.34509L12.3772 6.93243L7.00633 12.3033L3.41899 8.71598ZM42.0683 6.56281L47.4392 11.9324L34.1975 25.1742L28.8278 19.8021L42.0683 6.56281ZM48.7835 2.53244C48.7873 2.5299 48.7772 2.5299 48.7873 2.54003L51.462 5.21471C51.4696 5.22231 51.4696 5.21725 51.4696 5.21851L47.8873 8.79952L45.2025 6.11471L48.7835 2.53244ZM51.7607 42.7362L35.9886 26.9641L46.5101 16.4426L47.4962 17.4299C47.9911 17.9248 47.9911 18.7261 47.4937 19.2236L42.5266 24.1894C42.0329 24.6843 42.0329 25.4856 42.5266 25.9793C43.0215 26.4742 43.8228 26.4742 44.3164 25.9793L49.2835 21.0147C50.7696 19.5286 50.7709 17.1236 49.2873 15.64L48.3 14.6527L49.2291 13.7223L51.019 11.9324L49.6772 10.5907L53.2595 7.00838C54.2532 6.01218 54.243 4.41598 53.2519 3.42358L50.5772 0.748892C49.5759 -0.252373 47.981 -0.244778 46.9937 0.742563L43.4114 4.32484L42.0683 2.9818L40.2785 4.77168H40.2772V4.77294L27.038 18.0122L10.5797 1.55522C9.09747 0.0742089 6.7 0.0792722 5.21645 1.56282L1.63671 5.14256C0.158228 6.62104 0.149367 9.02737 1.62911 10.5059L5.21645 14.0932L5.55823 14.435L7.00633 15.8843L18.0861 26.9641L3.57975 41.4704L0.894936 47.7362L2.68481 49.5261L0 52.2109L1.78987 54.0008L4.47468 51.316L6.26582 53.1058L12.5316 50.421L27.038 35.9147L41.019 49.897L42.8088 51.6869L51.9785 53.8033C53.3304 54.1147 54.1911 53.2666 53.8759 51.9046L51.7607 42.7362Z" fill="#7DF9FF"/>
</g>
<defs>
<clipPath id="clip0">
<rect width="54" height="54" fill="white"/>
</clipPath>
</defs>
</svg>
