<svg width="47" height="47" viewBox="0 0 47 47" fill="none" xmlns="http://www.w3.org/2000/svg">
<rect width="47" height="47" fill="#1D1D1D"/>
<path d="M47 23.5C47 10.5199 36.4801 0 23.5 0C10.5199 0 0 10.5199 0 23.5C0 36.4801 10.5199 47 23.5 47C23.6377 47 23.7754 47 23.9131 46.9908V28.7049H18.8643V22.8207H23.9131V18.4879C23.9131 13.4666 26.9791 10.7311 31.4588 10.7311C33.6068 10.7311 35.452 10.8871 35.9844 10.9605V16.2113H32.9C30.4674 16.2113 29.99 17.368 29.99 19.0662V22.8115H35.8191L35.0572 28.6957H29.99V46.0912C39.8123 43.273 47 34.2311 47 23.5Z" fill="#FD2155"/>
</svg>
