<svg id="Layer_1" data-name="Layer 1" xmlns="http://www.w3.org/2000/svg" viewBox="0 0 260 89.96"><defs><style>.cls-1{fill:#1a1a1a;}</style></defs><title>final-header-logo2</title><path class="cls-1" d="M90,61.2c0,3.08,2,4.57,4.71,4.57a6.49,6.49,0,0,0,6.14-4.38,7.57,7.57,0,0,0,.22-2V55.18C94.8,55.15,90,56.66,90,61.2Z" transform="translate(1.9 -0.02)"/><path class="cls-1" d="M53.9,39.58a35.4,35.4,0,0,0-4.86.27v10.8a27,27,0,0,0,4,.21c6.31,0,10.21-2.22,10.21-5.92C63.2,41.58,59.89,39.58,53.9,39.58Z" transform="translate(1.9 -0.02)"/><path class="cls-1" d="M-1.9,0V90h260V0ZM70.17,52.79C66.11,55.68,60.06,57,53.1,57A35.13,35.13,0,0,1,49,56.81V71.08H37.26V31.77a127.69,127.69,0,0,1,16.05-.84c7.29,0,12.57,1.07,16.09,3.22A10.69,10.69,0,0,1,75,43.36,11.14,11.14,0,0,1,70.17,52.79Zm31.69,18.43L101.22,68H101c-2.26,2.55-5.8,3.91-9.9,3.91-7.06,0-11.21-4.69-11.21-9.81,0-8.36,8.08-12.32,20.35-12.3v-.41c0-1.71-1-4.14-6.35-4.13a21.17,21.17,0,0,0-9.55,2.39l-2-6.38a29.88,29.88,0,0,1,13.48-2.87c11.54,0,15.19,6.31,15.19,13.84V63.45a43.62,43.62,0,0,0,.55,7.77Zm48.64-.14h-30V65.25l10.9-12.85c2-2.17,3.51-3.81,5.47-5.77v-.15H121.67v-8H150v6.11L139.53,56.9c-1.88,2.11-3.67,4.16-5.64,6V63H150.5Zm43.17-14.63c0,11.45-5.51,15.49-14.37,15.49a22.73,22.73,0,0,1-6.67-1l1-7.34a16,16,0,0,0,4.65.7c3.83,0,6.24-1.71,6.24-8V30.93h9.13Zm18.25,15.49a6.8,6.8,0,0,1-7-7.19,6.84,6.84,0,0,1,7-7.23c4.12,0,6.94,2.92,7,7.23S216.13,71.94,211.92,71.94Z" transform="translate(1.9 -0.02)"/></svg>