<svg width="50" height="49" viewBox="0 0 50 49" fill="none" xmlns="http://www.w3.org/2000/svg">
<g clip-path="url(#clip0)">
<rect width="50" height="49" fill="#1D1D1D"/>
<path d="M25 1.02075C11.1875 1.02075 0 11.8008 0 25.0961C0 35.7352 7.1625 44.7573 17.0938 47.9383C18.3438 48.1649 18.8021 47.4197 18.8021 46.7806C18.8021 46.209 18.7812 44.694 18.7708 42.6871C11.8167 44.1387 10.35 39.4572 10.35 39.4572C9.2125 36.6785 7.56875 35.9353 7.56875 35.9353C5.30417 34.4428 7.74375 34.4735 7.74375 34.4735C10.2542 34.6409 11.5729 36.9541 11.5729 36.9541C13.8021 40.6352 17.425 39.5715 18.8542 38.957C19.0792 37.3992 19.7229 36.3395 20.4375 35.7373C14.8854 35.135 9.05 33.0647 9.05 23.8405C9.05 21.2128 10.0187 19.065 11.6229 17.3806C11.3417 16.7722 10.4979 14.3243 11.8417 11.0086C11.8417 11.0086 13.9354 10.3634 18.7167 13.477C20.7167 12.942 22.8417 12.6766 24.9667 12.6644C27.0917 12.6766 29.2167 12.942 31.2167 13.477C35.9667 10.3634 38.0604 11.0086 38.0604 11.0086C39.4042 14.3243 38.5604 16.7722 38.3104 17.3806C39.9042 19.065 40.8729 21.2128 40.8729 23.8405C40.8729 33.0892 35.0292 35.1248 29.4667 35.7168C30.3417 36.4396 31.1542 37.9157 31.1542 40.1718C31.1542 43.3935 31.1229 45.9823 31.1229 46.7643C31.1229 47.3952 31.5604 48.1485 32.8417 47.9076C42.8438 44.7471 50 35.7189 50 25.0961C50 11.8008 38.8062 1.02075 25 1.02075Z" fill="#FD2155"/>
</g>
<defs>
<clipPath id="clip0">
<rect width="50" height="49" fill="white"/>
</clipPath>
</defs>
</svg>
