<svg width="48" height="48" viewBox="0 0 48 48" fill="none" xmlns="http://www.w3.org/2000/svg">
<rect width="48" height="48" transform="translate(48 48) rotate(-180)" fill="#1D1D1D"/>
<path d="M19.4062 24C19.4062 21.4629 21.4629 19.4062 24 19.4062C26.5371 19.4062 28.5938 21.4629 28.5938 24C28.5938 26.5371 26.5371 28.5938 24 28.5938C21.4629 28.5938 19.4062 26.5371 19.4062 24Z" fill="#FD2155"/>
<path d="M13.2568 32.1278C13.4777 32.7262 13.83 33.2678 14.2877 33.7124C14.7323 34.1702 15.2736 34.5225 15.8723 34.7433C16.3579 34.9319 17.0874 35.1564 18.431 35.2175C19.8845 35.2838 20.3203 35.2981 24 35.2981C27.6801 35.2981 28.1158 35.2842 29.569 35.2179C30.9126 35.1564 31.6425 34.9319 32.1277 34.7433C32.7264 34.5225 33.2681 34.1702 33.7123 33.7124C34.17 33.2678 34.5223 32.7266 34.7435 32.1278C34.9321 31.6422 35.1566 30.9124 35.2178 29.5687C35.2841 28.1156 35.2983 27.6798 35.2983 23.9998C35.2983 20.3201 35.2841 19.8843 35.2178 18.4308C35.1566 17.0872 34.9321 16.3577 34.7435 15.8721C34.5223 15.2733 34.1704 14.7321 33.7126 14.2875C33.2681 13.8297 32.7268 13.4774 32.1281 13.2566C31.6425 13.0676 30.9126 12.8431 29.569 12.782C28.1158 12.7157 27.6804 12.7018 24.0004 12.7018C20.3199 12.7018 19.8842 12.7157 18.4314 12.782C17.0878 12.8431 16.3579 13.0676 15.8723 13.2566C14.6704 13.7202 13.7205 14.6702 13.2568 15.8721C13.0682 16.3577 12.8438 17.0872 12.7822 18.4308C12.7159 19.8843 12.702 20.3201 12.702 23.9998C12.702 27.6798 12.7159 28.1156 12.7822 29.5687C12.8434 30.9124 13.0679 31.6422 13.2568 32.1278ZM24 16.9235C27.9086 16.9235 31.077 20.0915 31.077 24.0001C31.077 27.9087 27.9086 31.0768 24 31.0768C20.0918 31.0768 16.9233 27.9087 16.9233 24.0001C16.9233 20.0915 20.0918 16.9235 24 16.9235ZM16.6436 29.7028C17.5569 29.7028 18.2974 30.4432 18.2974 31.3566C18.2974 32.2699 17.5569 33.0104 16.6436 33.0104C15.7302 33.0104 14.9897 32.2699 14.9897 31.3566C14.9901 30.4432 15.7302 29.7028 16.6436 29.7028Z" fill="#FD2155"/>
<path d="M24 48C37.2528 48 48 37.2528 48 24C48 10.7472 37.2528 0 24 0C10.7472 0 0 10.7472 0 24C0 37.2528 10.7472 48 24 48ZM10.3019 18.3182C10.3685 16.8512 10.6018 15.8496 10.9424 14.9729C11.6583 13.1217 13.1217 11.6583 14.9729 10.9424C15.8492 10.6018 16.8512 10.3689 18.3179 10.3019C19.7875 10.2349 20.257 10.2188 23.9996 10.2188C27.7427 10.2188 28.2118 10.2349 29.6818 10.3019C31.1484 10.3689 32.1504 10.6018 33.0267 10.9424C33.9467 11.2885 34.7794 11.8308 35.4679 12.5321C36.1688 13.2202 36.7112 14.0533 37.0573 14.9729C37.3978 15.8492 37.6311 16.8512 37.6978 18.3179C37.7655 19.7878 37.7812 20.2573 37.7812 24C37.7812 27.7427 37.7655 28.2122 37.6981 29.6818C37.6315 31.1488 37.3986 32.1504 37.058 33.0271C36.7119 33.9467 36.1692 34.7798 35.4679 35.4679C34.7798 36.1692 33.9467 36.7115 33.0271 37.0576C32.1504 37.3982 31.1488 37.6311 29.6818 37.6981C28.2122 37.7651 27.7427 37.7812 24 37.7812C20.2573 37.7812 19.7878 37.7651 18.3182 37.6978C16.8512 37.6311 15.8496 37.3982 14.9729 37.058C14.0533 36.7119 13.2202 36.1692 12.5317 35.4679C11.8308 34.7794 11.2881 33.9467 10.9424 33.0271C10.6014 32.1504 10.3685 31.1488 10.3015 29.6818C10.2345 28.2122 10.2188 27.7427 10.2188 24C10.2188 20.2573 10.2345 19.7878 10.3019 18.3182Z" fill="#FD2155"/>
</svg>
