<svg width="902" height="904" viewBox="0 0 902 904" fill="none" xmlns="http://www.w3.org/2000/svg">
<g clip-path="url(#clip0)">
<path fill-rule="evenodd" clip-rule="evenodd" d="M668.678 836.209C678.215 845.742 678.264 861.247 668.785 870.839C659.307 880.432 643.89 880.483 634.353 870.95L475.34 712.003L256.025 492.781L119.804 356.617C53.0397 289.881 52.7045 181.347 119.055 114.2C185.406 47.0525 293.316 46.7186 360.08 113.454L715.617 468.84L715.616 468.841L738.716 491.931C748.254 501.465 748.302 516.969 738.823 526.562C729.344 536.155 713.929 536.202 704.391 526.669L681.291 503.578L681.009 503.296C671.471 493.763 656.055 493.81 646.577 503.403C637.108 512.985 637.146 528.466 646.652 538.003L750.78 642.087C760.318 651.62 760.365 667.125 750.887 676.717C741.408 686.31 725.993 686.358 716.455 676.824L611.428 571.842C601.883 562.412 586.544 562.494 577.1 572.051C567.622 581.644 567.669 597.149 577.207 606.683L578.315 607.791L613.176 642.638C622.714 652.172 622.762 667.676 613.283 677.269C603.804 686.862 588.389 686.909 578.851 677.376L493.11 591.67C483.566 582.213 468.207 582.286 458.754 591.853C449.322 601.398 449.323 616.797 458.72 626.342L668.678 836.209Z" fill="#7DF9FF" fill-opacity="0.79"/>
<mask id="mask0" style="mask-type:alpha" maskUnits="userSpaceOnUse" x="-39" y="-45" width="723" height="726">
<path d="M-39 -45H683.734V680.406H-39V-45Z" fill="white"/>
<path fill-rule="evenodd" clip-rule="evenodd" d="M579.856 483.966C588.197 492.304 588.24 505.863 579.949 514.253C571.66 522.642 558.178 522.684 549.837 514.346L409.119 373.687C400.773 365.413 387.338 365.475 379.069 373.843C370.779 382.233 370.821 395.793 379.162 404.13L380.132 405.099H380.131L388.45 413.415C396.792 421.753 396.833 435.313 388.544 443.702C380.254 452.091 366.772 452.133 358.431 443.795L305.64 391.026C297.296 382.73 283.845 382.786 275.569 391.161C267.313 399.516 267.32 412.997 275.559 421.344L365.822 511.57C374.163 519.907 374.206 533.467 365.916 541.857C357.626 550.246 344.145 550.287 335.803 541.95L98.2703 304.517L96.3136 302.561C37.9254 244.197 37.6318 149.278 95.6593 90.5533C153.687 31.8281 248.061 31.5367 306.45 89.9008L500.209 283.579V283.579L515.39 298.754C523.732 307.092 523.773 320.652 515.484 329.041C507.194 337.43 493.713 337.472 485.371 329.135L470.19 313.959L413.683 257.476C405.341 249.138 391.859 249.18 383.57 257.569C375.306 265.932 375.322 279.432 383.585 287.777L579.856 483.966V483.966Z" fill="black"/>
</mask>
<g mask="url(#mask0)">
<path fill-rule="evenodd" clip-rule="evenodd" d="M621.458 525.295C629.799 533.633 629.842 547.192 621.552 555.582C613.262 563.971 599.78 564.013 591.439 555.675L450.721 415.016C442.375 406.741 428.94 406.804 420.671 415.172C412.382 423.561 412.423 437.121 420.764 445.459L421.734 446.428L430.053 454.743C438.394 463.082 438.435 476.642 430.146 485.031C421.857 493.42 408.374 493.462 400.033 485.123L347.243 432.355C338.898 424.059 325.447 424.114 317.171 432.49C308.916 440.844 308.922 454.326 317.161 462.673L407.425 552.899C415.766 561.236 415.808 574.796 407.519 583.185C399.228 591.575 385.747 591.616 377.406 583.279L139.873 345.845L137.916 343.89C79.5276 285.525 79.234 190.606 137.262 131.882C195.289 73.1568 289.663 72.8654 348.052 131.229L541.811 324.907L556.993 340.082C565.334 348.421 565.375 361.981 557.086 370.37C548.797 378.759 535.315 378.801 526.973 370.463L511.792 355.288L455.285 298.804C446.944 290.467 433.461 290.509 425.172 298.898C416.909 307.261 416.924 320.761 425.187 329.105L621.458 525.295Z" fill="#7DF9FF"/>
</g>
<g clip-path="url(#clip1)">
<path d="M225.591 690.223H233.591V658.223H225.591V690.223Z" fill="#7DF9FF"/>
<path d="M245.591 678.223V670.223H213.591V678.223H245.591Z" fill="#7DF9FF"/>
<path d="M121.591 580.223H129.591V548.223H121.591V580.223Z" fill="#7DF9FF"/>
<path d="M141.591 568.223V560.223H109.591V568.223H141.591Z" fill="#7DF9FF"/>
<path d="M123.591 670.223H127.591V654.223H123.591V670.223Z" fill="#7DF9FF"/>
<path d="M133.591 664.223V660.223H117.591V664.223H133.591Z" fill="#7DF9FF"/>
<path d="M239.591 793.223H243.591V777.223H239.591V793.223Z" fill="#7DF9FF"/>
<path d="M249.591 787.223V783.223H233.591V787.223H249.591Z" fill="#7DF9FF"/>
</g>
</g>
<defs>
<clipPath id="clip0">
<rect width="902" height="904" fill="white"/>
</clipPath>
<clipPath id="clip1">
<rect width="140" height="245" fill="white" transform="translate(109.591 548.223)"/>
</clipPath>
</defs>
</svg>
